<mxfile host="app.diagrams.net" modified="2023-05-09T02:53:37.677Z" agent="Mozilla/5.0 (Windows NT 10.0; Win64; x64) AppleWebKit/537.36 (KHTML, like Gecko) Chrome/112.0.0.0 Safari/537.36" etag="3v0sBEKL_JoeYwJ1-zU3" version="21.2.9" type="device">
  <diagram name="Página-1" id="jQUNm002niUk-GT-yzwm">
    <mxGraphModel dx="819" dy="455" grid="0" gridSize="10" guides="1" tooltips="1" connect="1" arrows="1" fold="1" page="1" pageScale="1" pageWidth="1100" pageHeight="850" math="0" shadow="0">
      <root>
        <mxCell id="0" />
        <mxCell id="1" parent="0" />
        <mxCell id="l2Y_8fY2IBBbS7zB0Trg-7" style="rounded=0;orthogonalLoop=1;jettySize=auto;html=1;exitX=0.5;exitY=0;exitDx=0;exitDy=0;entryX=0.424;entryY=1.016;entryDx=0;entryDy=0;entryPerimeter=0;endArrow=oval;endFill=1;fontSize=15;" parent="1" source="l2Y_8fY2IBBbS7zB0Trg-1" target="l2Y_8fY2IBBbS7zB0Trg-2" edge="1">
          <mxGeometry relative="1" as="geometry" />
        </mxCell>
        <mxCell id="l2Y_8fY2IBBbS7zB0Trg-8" style="rounded=0;orthogonalLoop=1;jettySize=auto;html=1;entryX=0.539;entryY=1.094;entryDx=0;entryDy=0;entryPerimeter=0;endArrow=oval;endFill=1;exitX=0.5;exitY=0;exitDx=0;exitDy=0;fontSize=15;" parent="1" source="l2Y_8fY2IBBbS7zB0Trg-1" target="l2Y_8fY2IBBbS7zB0Trg-3" edge="1">
          <mxGeometry relative="1" as="geometry" />
        </mxCell>
        <mxCell id="l2Y_8fY2IBBbS7zB0Trg-9" style="rounded=0;orthogonalLoop=1;jettySize=auto;html=1;entryX=0.447;entryY=1.094;entryDx=0;entryDy=0;entryPerimeter=0;endArrow=oval;endFill=1;exitX=0.5;exitY=0;exitDx=0;exitDy=0;fontSize=15;" parent="1" source="l2Y_8fY2IBBbS7zB0Trg-1" target="l2Y_8fY2IBBbS7zB0Trg-4" edge="1">
          <mxGeometry relative="1" as="geometry" />
        </mxCell>
        <mxCell id="l2Y_8fY2IBBbS7zB0Trg-10" style="rounded=0;orthogonalLoop=1;jettySize=auto;html=1;endArrow=oval;endFill=1;fontSize=15;" parent="1" source="l2Y_8fY2IBBbS7zB0Trg-1" target="l2Y_8fY2IBBbS7zB0Trg-5" edge="1">
          <mxGeometry relative="1" as="geometry" />
        </mxCell>
        <mxCell id="l2Y_8fY2IBBbS7zB0Trg-11" style="rounded=0;orthogonalLoop=1;jettySize=auto;html=1;entryX=-0.013;entryY=0.486;entryDx=0;entryDy=0;entryPerimeter=0;endArrow=oval;endFill=1;fontSize=15;" parent="1" source="l2Y_8fY2IBBbS7zB0Trg-1" target="l2Y_8fY2IBBbS7zB0Trg-6" edge="1">
          <mxGeometry relative="1" as="geometry" />
        </mxCell>
        <mxCell id="l2Y_8fY2IBBbS7zB0Trg-29" value="n" style="edgeStyle=orthogonalEdgeStyle;rounded=0;orthogonalLoop=1;jettySize=auto;html=1;exitX=0.153;exitY=0.996;exitDx=0;exitDy=0;entryX=1;entryY=0.5;entryDx=0;entryDy=0;endArrow=none;endFill=0;exitPerimeter=0;fontSize=15;" parent="1" source="l2Y_8fY2IBBbS7zB0Trg-1" target="l2Y_8fY2IBBbS7zB0Trg-28" edge="1">
          <mxGeometry x="-0.3224" relative="1" as="geometry">
            <Array as="points">
              <mxPoint x="311" y="286" />
            </Array>
            <mxPoint as="offset" />
          </mxGeometry>
        </mxCell>
        <mxCell id="l2Y_8fY2IBBbS7zB0Trg-34" value="(0,1)" style="edgeStyle=orthogonalEdgeStyle;rounded=0;orthogonalLoop=1;jettySize=auto;html=1;exitX=0.75;exitY=1;exitDx=0;exitDy=0;entryX=0;entryY=0.5;entryDx=0;entryDy=0;endArrow=none;endFill=0;fontSize=15;" parent="1" source="l2Y_8fY2IBBbS7zB0Trg-1" target="l2Y_8fY2IBBbS7zB0Trg-32" edge="1">
          <mxGeometry x="-0.7334" relative="1" as="geometry">
            <mxPoint as="offset" />
          </mxGeometry>
        </mxCell>
        <mxCell id="mVVHZWynLcd7KBnBpnjJ-20" style="rounded=0;orthogonalLoop=1;jettySize=auto;html=1;exitX=0.75;exitY=0;exitDx=0;exitDy=0;entryX=0.003;entryY=0.984;entryDx=0;entryDy=0;entryPerimeter=0;endArrow=oval;endFill=1;fontSize=15;" parent="1" source="l2Y_8fY2IBBbS7zB0Trg-1" target="l2Y_8fY2IBBbS7zB0Trg-40" edge="1">
          <mxGeometry relative="1" as="geometry" />
        </mxCell>
        <mxCell id="l2Y_8fY2IBBbS7zB0Trg-1" value="programa" style="whiteSpace=wrap;html=1;align=center;fillColor=#d5e8d4;strokeColor=#82b366;fontSize=15;" parent="1" vertex="1">
          <mxGeometry x="296.03" y="216" width="100" height="40" as="geometry" />
        </mxCell>
        <mxCell id="l2Y_8fY2IBBbS7zB0Trg-2" value="nombre" style="text;html=1;align=center;verticalAlign=middle;resizable=0;points=[];autosize=1;strokeColor=none;fillColor=none;fontSize=15;" parent="1" vertex="1">
          <mxGeometry x="212.03" y="127" width="69" height="30" as="geometry" />
        </mxCell>
        <mxCell id="l2Y_8fY2IBBbS7zB0Trg-3" value="# versión" style="text;html=1;align=center;verticalAlign=middle;resizable=0;points=[];autosize=1;strokeColor=none;fillColor=none;fontSize=15;" parent="1" vertex="1">
          <mxGeometry x="212.03" y="85" width="79" height="30" as="geometry" />
        </mxCell>
        <mxCell id="l2Y_8fY2IBBbS7zB0Trg-4" value="extension&lt;br style=&quot;font-size: 15px;&quot;&gt;" style="text;html=1;align=center;verticalAlign=middle;resizable=0;points=[];autosize=1;strokeColor=none;fillColor=none;fontSize=15;" parent="1" vertex="1">
          <mxGeometry x="270.03" y="115" width="82" height="30" as="geometry" />
        </mxCell>
        <mxCell id="l2Y_8fY2IBBbS7zB0Trg-5" value="codígo" style="text;html=1;align=center;verticalAlign=middle;resizable=0;points=[];autosize=1;strokeColor=none;fillColor=none;fontSize=15;" parent="1" vertex="1">
          <mxGeometry x="326.03" y="85" width="63" height="30" as="geometry" />
        </mxCell>
        <mxCell id="l2Y_8fY2IBBbS7zB0Trg-6" value="descripción" style="text;html=1;align=center;verticalAlign=middle;resizable=0;points=[];autosize=1;strokeColor=none;fillColor=none;fontSize=15;" parent="1" vertex="1">
          <mxGeometry x="370.03" y="145" width="94" height="30" as="geometry" />
        </mxCell>
        <mxCell id="l2Y_8fY2IBBbS7zB0Trg-16" style="rounded=0;orthogonalLoop=1;jettySize=auto;html=1;exitX=0.5;exitY=0;exitDx=0;exitDy=0;entryX=0.296;entryY=1.094;entryDx=0;entryDy=0;entryPerimeter=0;endArrow=oval;endFill=1;fontSize=15;" parent="1" source="l2Y_8fY2IBBbS7zB0Trg-12" target="l2Y_8fY2IBBbS7zB0Trg-14" edge="1">
          <mxGeometry relative="1" as="geometry" />
        </mxCell>
        <mxCell id="l2Y_8fY2IBBbS7zB0Trg-17" style="rounded=0;orthogonalLoop=1;jettySize=auto;html=1;exitX=0.75;exitY=0;exitDx=0;exitDy=0;entryX=-0.021;entryY=0.694;entryDx=0;entryDy=0;entryPerimeter=0;endArrow=oval;endFill=1;fontSize=15;" parent="1" source="l2Y_8fY2IBBbS7zB0Trg-12" target="l2Y_8fY2IBBbS7zB0Trg-15" edge="1">
          <mxGeometry relative="1" as="geometry" />
        </mxCell>
        <mxCell id="l2Y_8fY2IBBbS7zB0Trg-12" value="usuarios" style="whiteSpace=wrap;html=1;align=center;fillColor=#dae8fc;strokeColor=#6c8ebf;fontSize=15;" parent="1" vertex="1">
          <mxGeometry x="616.03" y="134" width="100" height="40" as="geometry" />
        </mxCell>
        <mxCell id="l2Y_8fY2IBBbS7zB0Trg-14" value="user_name" style="text;html=1;align=center;verticalAlign=middle;resizable=0;points=[];autosize=1;strokeColor=none;fillColor=none;fontStyle=4;fontSize=15;" parent="1" vertex="1">
          <mxGeometry x="591.03" y="67" width="93" height="30" as="geometry" />
        </mxCell>
        <mxCell id="l2Y_8fY2IBBbS7zB0Trg-15" value="contraseña" style="text;html=1;align=center;verticalAlign=middle;resizable=0;points=[];autosize=1;strokeColor=none;fillColor=none;fontSize=15;" parent="1" vertex="1">
          <mxGeometry x="716.03" y="92" width="92" height="30" as="geometry" />
        </mxCell>
        <mxCell id="l2Y_8fY2IBBbS7zB0Trg-19" value="n" style="edgeStyle=orthogonalEdgeStyle;rounded=0;orthogonalLoop=1;jettySize=auto;html=1;entryX=1;entryY=0.5;entryDx=0;entryDy=0;endArrow=none;endFill=0;fontSize=15;" parent="1" source="l2Y_8fY2IBBbS7zB0Trg-18" target="l2Y_8fY2IBBbS7zB0Trg-1" edge="1">
          <mxGeometry x="0.5" relative="1" as="geometry">
            <mxPoint x="1" as="offset" />
          </mxGeometry>
        </mxCell>
        <mxCell id="l2Y_8fY2IBBbS7zB0Trg-20" value="1" style="edgeStyle=orthogonalEdgeStyle;rounded=0;orthogonalLoop=1;jettySize=auto;html=1;exitX=1;exitY=0.5;exitDx=0;exitDy=0;entryX=0;entryY=0.5;entryDx=0;entryDy=0;endArrow=none;endFill=0;fontSize=15;" parent="1" source="l2Y_8fY2IBBbS7zB0Trg-18" target="l2Y_8fY2IBBbS7zB0Trg-23" edge="1">
          <mxGeometry x="0.5" relative="1" as="geometry">
            <mxPoint x="-1" as="offset" />
          </mxGeometry>
        </mxCell>
        <mxCell id="l2Y_8fY2IBBbS7zB0Trg-18" value="escribe" style="shape=rhombus;perimeter=rhombusPerimeter;whiteSpace=wrap;html=1;align=center;fontSize=15;" parent="1" vertex="1">
          <mxGeometry x="436.03" y="216" width="80" height="40" as="geometry" />
        </mxCell>
        <mxCell id="l2Y_8fY2IBBbS7zB0Trg-24" style="edgeStyle=orthogonalEdgeStyle;rounded=0;orthogonalLoop=1;jettySize=auto;html=1;entryX=0.5;entryY=1;entryDx=0;entryDy=0;fillColor=#dae8fc;strokeColor=#6c8ebf;fontSize=15;" parent="1" source="l2Y_8fY2IBBbS7zB0Trg-23" target="l2Y_8fY2IBBbS7zB0Trg-12" edge="1">
          <mxGeometry relative="1" as="geometry" />
        </mxCell>
        <mxCell id="l2Y_8fY2IBBbS7zB0Trg-23" value="programador" style="whiteSpace=wrap;html=1;align=center;fillColor=#dae8fc;strokeColor=#6c8ebf;fontSize=15;" parent="1" vertex="1">
          <mxGeometry x="556.03" y="216" width="100" height="40" as="geometry" />
        </mxCell>
        <mxCell id="l2Y_8fY2IBBbS7zB0Trg-30" value="(0,1)" style="edgeStyle=orthogonalEdgeStyle;rounded=0;orthogonalLoop=1;jettySize=auto;html=1;exitX=0;exitY=0.5;exitDx=0;exitDy=0;entryX=0;entryY=0.5;entryDx=0;entryDy=0;endArrow=none;endFill=0;fontSize=15;" parent="1" source="l2Y_8fY2IBBbS7zB0Trg-28" target="l2Y_8fY2IBBbS7zB0Trg-1" edge="1">
          <mxGeometry x="0.6373" y="3" relative="1" as="geometry">
            <mxPoint as="offset" />
            <Array as="points">
              <mxPoint x="200" y="286" />
              <mxPoint x="200" y="236" />
            </Array>
          </mxGeometry>
        </mxCell>
        <mxCell id="l2Y_8fY2IBBbS7zB0Trg-28" value="llamado" style="shape=rhombus;perimeter=rhombusPerimeter;whiteSpace=wrap;html=1;align=center;fontSize=15;" parent="1" vertex="1">
          <mxGeometry x="215" y="266" width="81.03" height="40" as="geometry" />
        </mxCell>
        <mxCell id="l2Y_8fY2IBBbS7zB0Trg-33" value="n" style="edgeStyle=orthogonalEdgeStyle;rounded=0;orthogonalLoop=1;jettySize=auto;html=1;entryX=0.5;entryY=1;entryDx=0;entryDy=0;endArrow=none;endFill=0;fontSize=15;" parent="1" source="l2Y_8fY2IBBbS7zB0Trg-32" target="l2Y_8fY2IBBbS7zB0Trg-23" edge="1">
          <mxGeometry x="0.7244" relative="1" as="geometry">
            <mxPoint as="offset" />
          </mxGeometry>
        </mxCell>
        <mxCell id="l2Y_8fY2IBBbS7zB0Trg-32" value="usado" style="shape=rhombus;perimeter=rhombusPerimeter;whiteSpace=wrap;html=1;align=center;fontSize=15;" parent="1" vertex="1">
          <mxGeometry x="436.03" y="286" width="80" height="50" as="geometry" />
        </mxCell>
        <mxCell id="l2Y_8fY2IBBbS7zB0Trg-40" value="ID_prog" style="text;html=1;align=center;verticalAlign=middle;resizable=0;points=[];autosize=1;strokeColor=none;fillColor=none;fontStyle=4;fontSize=15;" parent="1" vertex="1">
          <mxGeometry x="381.03" y="175" width="71" height="30" as="geometry" />
        </mxCell>
        <mxCell id="mVVHZWynLcd7KBnBpnjJ-13" style="rounded=0;orthogonalLoop=1;jettySize=auto;html=1;exitX=0.25;exitY=1;exitDx=0;exitDy=0;endArrow=oval;endFill=1;entryX=0.99;entryY=0.051;entryDx=0;entryDy=0;entryPerimeter=0;fontSize=15;" parent="1" source="mVVHZWynLcd7KBnBpnjJ-1" target="mVVHZWynLcd7KBnBpnjJ-14" edge="1">
          <mxGeometry relative="1" as="geometry">
            <mxPoint x="516.03" y="391" as="targetPoint" />
          </mxGeometry>
        </mxCell>
        <mxCell id="mVVHZWynLcd7KBnBpnjJ-16" style="rounded=0;orthogonalLoop=1;jettySize=auto;html=1;exitX=0.435;exitY=1.067;exitDx=0;exitDy=0;endArrow=oval;endFill=1;entryX=0.483;entryY=-0.117;entryDx=0;entryDy=0;entryPerimeter=0;exitPerimeter=0;fontSize=15;" parent="1" source="mVVHZWynLcd7KBnBpnjJ-1" target="mVVHZWynLcd7KBnBpnjJ-17" edge="1">
          <mxGeometry relative="1" as="geometry">
            <mxPoint x="596.03" y="391" as="targetPoint" />
          </mxGeometry>
        </mxCell>
        <mxCell id="mVVHZWynLcd7KBnBpnjJ-1" value="DB" style="whiteSpace=wrap;html=1;align=center;fillColor=#f8cecc;strokeColor=#b85450;fontSize=15;" parent="1" vertex="1">
          <mxGeometry x="506.03" y="321" width="100" height="40" as="geometry" />
        </mxCell>
        <mxCell id="mVVHZWynLcd7KBnBpnjJ-3" style="edgeStyle=orthogonalEdgeStyle;rounded=0;orthogonalLoop=1;jettySize=auto;html=1;entryX=0.5;entryY=1;entryDx=0;entryDy=0;fillColor=#dae8fc;strokeColor=#6c8ebf;fontSize=15;" parent="1" source="mVVHZWynLcd7KBnBpnjJ-2" target="l2Y_8fY2IBBbS7zB0Trg-12" edge="1">
          <mxGeometry relative="1" as="geometry" />
        </mxCell>
        <mxCell id="mVVHZWynLcd7KBnBpnjJ-7" value="1" style="edgeStyle=orthogonalEdgeStyle;rounded=0;orthogonalLoop=1;jettySize=auto;html=1;exitX=0.5;exitY=1;exitDx=0;exitDy=0;entryX=0.5;entryY=0;entryDx=0;entryDy=0;endArrow=none;endFill=0;fontSize=15;" parent="1" source="mVVHZWynLcd7KBnBpnjJ-2" target="mVVHZWynLcd7KBnBpnjJ-6" edge="1">
          <mxGeometry x="-0.4333" relative="1" as="geometry">
            <mxPoint as="offset" />
          </mxGeometry>
        </mxCell>
        <mxCell id="mVVHZWynLcd7KBnBpnjJ-2" value="DBA" style="whiteSpace=wrap;html=1;align=center;fillColor=#dae8fc;strokeColor=#6c8ebf;fontSize=15;" parent="1" vertex="1">
          <mxGeometry x="676.03" y="216" width="100" height="40" as="geometry" />
        </mxCell>
        <mxCell id="mVVHZWynLcd7KBnBpnjJ-8" value="1" style="edgeStyle=orthogonalEdgeStyle;rounded=0;orthogonalLoop=1;jettySize=auto;html=1;exitX=0;exitY=0.5;exitDx=0;exitDy=0;endArrow=none;endFill=0;fontSize=15;" parent="1" source="mVVHZWynLcd7KBnBpnjJ-6" target="mVVHZWynLcd7KBnBpnjJ-1" edge="1">
          <mxGeometry x="0.6507" relative="1" as="geometry">
            <mxPoint as="offset" />
          </mxGeometry>
        </mxCell>
        <mxCell id="mVVHZWynLcd7KBnBpnjJ-6" value="administa" style="shape=rhombus;perimeter=rhombusPerimeter;whiteSpace=wrap;html=1;align=center;fontSize=15;" parent="1" vertex="1">
          <mxGeometry x="680" y="316" width="91" height="48" as="geometry" />
        </mxCell>
        <mxCell id="mVVHZWynLcd7KBnBpnjJ-11" value="1" style="edgeStyle=orthogonalEdgeStyle;rounded=0;orthogonalLoop=1;jettySize=auto;html=1;entryX=0;entryY=0.5;entryDx=0;entryDy=0;endArrow=none;endFill=0;fontSize=15;" parent="1" source="mVVHZWynLcd7KBnBpnjJ-10" target="mVVHZWynLcd7KBnBpnjJ-1" edge="1">
          <mxGeometry x="0.6667" relative="1" as="geometry">
            <mxPoint as="offset" />
          </mxGeometry>
        </mxCell>
        <mxCell id="mVVHZWynLcd7KBnBpnjJ-12" value="n" style="edgeStyle=orthogonalEdgeStyle;rounded=0;orthogonalLoop=1;jettySize=auto;html=1;entryX=0.5;entryY=1;entryDx=0;entryDy=0;endArrow=none;endFill=0;fontSize=15;" parent="1" source="mVVHZWynLcd7KBnBpnjJ-10" target="l2Y_8fY2IBBbS7zB0Trg-1" edge="1">
          <mxGeometry x="0.3667" relative="1" as="geometry">
            <mxPoint as="offset" />
          </mxGeometry>
        </mxCell>
        <mxCell id="mVVHZWynLcd7KBnBpnjJ-10" value="almacena" style="shape=rhombus;perimeter=rhombusPerimeter;whiteSpace=wrap;html=1;align=center;fontSize=15;" parent="1" vertex="1">
          <mxGeometry x="303.02" y="313.5" width="86.03" height="55" as="geometry" />
        </mxCell>
        <mxCell id="mVVHZWynLcd7KBnBpnjJ-14" value="relaciones" style="text;html=1;align=center;verticalAlign=middle;resizable=0;points=[];autosize=1;strokeColor=none;fillColor=none;fontSize=15;" parent="1" vertex="1">
          <mxGeometry x="424.03" y="382" width="86" height="30" as="geometry" />
        </mxCell>
        <mxCell id="mVVHZWynLcd7KBnBpnjJ-17" value="atributos" style="text;html=1;align=center;verticalAlign=middle;resizable=0;points=[];autosize=1;strokeColor=none;fillColor=none;fontSize=15;" parent="1" vertex="1">
          <mxGeometry x="503.03" y="412" width="76" height="30" as="geometry" />
        </mxCell>
        <mxCell id="mVVHZWynLcd7KBnBpnjJ-18" style="rounded=0;orthogonalLoop=1;jettySize=auto;html=1;exitX=0.683;exitY=1.033;exitDx=0;exitDy=0;endArrow=oval;endFill=1;entryX=0.483;entryY=-0.117;entryDx=0;entryDy=0;entryPerimeter=0;exitPerimeter=0;fontSize=15;" parent="1" source="mVVHZWynLcd7KBnBpnjJ-1" target="mVVHZWynLcd7KBnBpnjJ-19" edge="1">
          <mxGeometry relative="1" as="geometry">
            <mxPoint x="667.23" y="378.36" as="targetPoint" />
            <mxPoint x="616.0300000000002" y="360.9999999999999" as="sourcePoint" />
          </mxGeometry>
        </mxCell>
        <mxCell id="mVVHZWynLcd7KBnBpnjJ-19" value="DB_id" style="text;html=1;align=center;verticalAlign=middle;resizable=0;points=[];autosize=1;strokeColor=none;fillColor=none;fontStyle=4;fontSize=15;" parent="1" vertex="1">
          <mxGeometry x="588.03" y="389.36" width="59" height="30" as="geometry" />
        </mxCell>
        <mxCell id="jZ1caVaXt9hDpOia809z-1" value="&lt;font color=&quot;#007fff&quot; style=&quot;font-size: 15px;&quot;&gt;&lt;span style=&quot;font-size: 15px;&quot;&gt;&lt;b style=&quot;font-size: 15px;&quot;&gt;MER - ENTORNO DE&lt;br style=&quot;font-size: 15px;&quot;&gt;&amp;nbsp;DESARROLLO&lt;/b&gt;&lt;/span&gt;&lt;/font&gt;" style="text;html=1;align=center;verticalAlign=middle;resizable=0;points=[];autosize=1;strokeColor=none;fillColor=none;fontSize=15;" vertex="1" parent="1">
          <mxGeometry x="415" y="76" width="164" height="48" as="geometry" />
        </mxCell>
        <mxCell id="jZ1caVaXt9hDpOia809z-2" value="Se asume que una DB es &lt;br&gt;administrada por un DBA" style="text;html=1;align=center;verticalAlign=middle;resizable=0;points=[];autosize=1;strokeColor=none;fillColor=none;" vertex="1" parent="1">
          <mxGeometry x="656" y="383" width="155" height="41" as="geometry" />
        </mxCell>
        <mxCell id="jZ1caVaXt9hDpOia809z-3" value="(t,e)" style="text;html=1;align=center;verticalAlign=middle;resizable=0;points=[];autosize=1;strokeColor=none;fillColor=none;" vertex="1" parent="1">
          <mxGeometry x="673" y="171" width="39" height="26" as="geometry" />
        </mxCell>
      </root>
    </mxGraphModel>
  </diagram>
</mxfile>
